<svg width="197" height="186" viewBox="0 0 197 186" fill="none" xmlns="http://www.w3.org/2000/svg">
<path d="M194.807 185.223C194.081 185.223 193.455 184.669 193.384 183.929C193.342 183.46 193.299 183.004 193.256 182.535C193.171 181.753 193.74 181.056 194.522 180.97C195.319 180.871 196.001 181.454 196.087 182.236C196.144 182.706 196.186 183.189 196.229 183.673C196.3 184.455 195.717 185.152 194.935 185.209C194.878 185.209 194.835 185.223 194.807 185.223ZM193.583 176.803C192.929 176.803 192.332 176.348 192.189 175.665C192.09 175.21 191.99 174.755 191.891 174.3C191.72 173.532 192.189 172.778 192.958 172.593C193.726 172.408 194.479 172.892 194.664 173.66C194.778 174.129 194.878 174.598 194.977 175.082C195.134 175.85 194.65 176.604 193.868 176.76C193.768 176.789 193.683 176.803 193.583 176.803ZM191.308 168.596C190.724 168.596 190.17 168.24 189.971 167.657C189.814 167.216 189.658 166.79 189.487 166.363C189.203 165.638 189.572 164.813 190.298 164.528C191.023 164.244 191.848 164.613 192.133 165.353C192.303 165.808 192.474 166.263 192.645 166.718C192.915 167.458 192.517 168.269 191.777 168.539C191.621 168.568 191.464 168.596 191.308 168.596ZM187.866 160.83C187.353 160.83 186.87 160.56 186.614 160.076C186.4 159.664 186.173 159.265 185.945 158.867C185.561 158.184 185.789 157.317 186.472 156.933C187.154 156.549 188.022 156.776 188.406 157.459C188.648 157.886 188.875 158.298 189.117 158.739C189.487 159.436 189.231 160.289 188.534 160.659C188.321 160.773 188.079 160.83 187.866 160.83ZM183.271 153.661C182.845 153.661 182.418 153.462 182.133 153.092C181.849 152.723 181.579 152.353 181.28 151.997C180.796 151.386 180.896 150.489 181.522 150.006C182.133 149.522 183.03 149.622 183.513 150.248C183.812 150.632 184.111 151.016 184.395 151.4C184.864 152.026 184.736 152.922 184.11 153.391C183.869 153.562 183.57 153.661 183.271 153.661ZM177.71 147.204C177.34 147.204 176.97 147.062 176.686 146.777C176.359 146.45 176.032 146.123 175.704 145.796C175.15 145.241 175.135 144.345 175.69 143.79C176.245 143.235 177.141 143.221 177.696 143.776C178.037 144.117 178.378 144.459 178.72 144.8C179.274 145.369 179.26 146.265 178.691 146.806C178.435 147.062 178.08 147.204 177.71 147.204ZM171.437 141.429C171.11 141.429 170.797 141.315 170.527 141.102C170.171 140.803 169.802 140.505 169.432 140.206C168.82 139.708 168.735 138.812 169.218 138.2C169.716 137.589 170.612 137.503 171.224 137.987C171.594 138.286 171.978 138.599 172.348 138.912C172.945 139.409 173.03 140.305 172.533 140.917C172.248 141.258 171.85 141.429 171.437 141.429ZM164.681 136.223C164.397 136.223 164.098 136.138 163.856 135.953L162.704 135.128C162.064 134.673 161.908 133.791 162.363 133.151C162.818 132.511 163.7 132.354 164.34 132.81L165.506 133.649C166.146 134.104 166.288 135 165.833 135.64C165.563 136.01 165.122 136.223 164.681 136.223ZM157.655 131.373C157.384 131.373 157.114 131.302 156.858 131.131L155.678 130.349C155.023 129.922 154.838 129.04 155.265 128.386C155.692 127.732 156.574 127.547 157.228 127.974L158.423 128.77C159.077 129.211 159.248 130.093 158.807 130.747C158.565 131.145 158.124 131.373 157.655 131.373ZM150.515 126.694C150.244 126.694 149.974 126.622 149.746 126.466L148.552 125.698C147.897 125.271 147.698 124.389 148.139 123.735C148.566 123.081 149.448 122.882 150.102 123.323L151.297 124.105C151.951 124.532 152.136 125.413 151.709 126.068C151.439 126.466 150.984 126.694 150.515 126.694ZM143.389 122.014C143.118 122.014 142.848 121.943 142.592 121.772L141.397 120.961C140.743 120.521 140.587 119.639 141.027 118.984C141.468 118.33 142.35 118.159 143.005 118.615L144.185 119.411C144.839 119.852 145.01 120.734 144.569 121.388C144.285 121.786 143.844 122.014 143.389 122.014ZM136.376 117.121C136.092 117.121 135.793 117.036 135.537 116.851L134.385 115.997C133.759 115.528 133.631 114.632 134.101 114.006C134.57 113.38 135.466 113.252 136.092 113.722L137.23 114.561C137.87 115.03 137.998 115.912 137.543 116.552C137.258 116.922 136.817 117.121 136.376 117.121ZM129.649 111.873C129.321 111.873 129.009 111.759 128.738 111.545C128.369 111.233 127.999 110.92 127.629 110.607C127.032 110.095 126.96 109.199 127.472 108.601C127.984 108.004 128.881 107.933 129.478 108.445C129.834 108.743 130.189 109.056 130.559 109.355C131.156 109.853 131.242 110.749 130.744 111.361C130.459 111.688 130.047 111.873 129.649 111.873ZM105.198 106.439C105.184 106.439 105.184 106.439 105.17 106.439C104.686 106.425 104.203 106.411 103.705 106.397C102.923 106.368 102.311 105.7 102.354 104.917C102.382 104.135 103.065 103.538 103.833 103.566C104.288 103.58 104.757 103.609 105.213 103.609C105.995 103.623 106.621 104.277 106.607 105.06C106.607 105.813 105.967 106.439 105.198 106.439ZM123.333 106.141C122.978 106.141 122.608 105.998 122.338 105.728C121.996 105.387 121.655 105.045 121.314 104.704C121.2 104.59 121.1 104.448 121.043 104.306C120.304 104.519 119.507 104.107 119.28 103.353C119.052 102.599 119.479 101.802 120.218 101.575C120.659 101.447 121.1 101.305 121.527 101.148C122.267 100.892 123.077 101.29 123.333 102.044C123.419 102.286 123.433 102.528 123.39 102.755C123.703 103.068 124.016 103.395 124.329 103.708C124.884 104.263 124.884 105.159 124.343 105.714C124.059 105.998 123.703 106.141 123.333 106.141ZM112.296 106.098C111.585 106.098 110.973 105.572 110.888 104.846C110.803 104.064 111.357 103.353 112.139 103.267C112.595 103.21 113.05 103.154 113.505 103.083C114.287 102.969 114.998 103.509 115.112 104.277C115.226 105.06 114.685 105.771 113.917 105.885C113.434 105.956 112.95 106.027 112.467 106.084C112.41 106.098 112.353 106.098 112.296 106.098ZM96.707 105.629C96.6217 105.629 96.5505 105.629 96.4652 105.614C95.9816 105.529 95.5122 105.444 95.0286 105.358C94.2605 105.202 93.7485 104.462 93.905 103.694C94.0614 102.926 94.801 102.414 95.5691 102.57C96.0243 102.656 96.4794 102.741 96.9345 102.826C97.7026 102.954 98.2289 103.694 98.1009 104.462C97.9871 105.145 97.3897 105.629 96.707 105.629ZM88.4289 103.609C88.2867 103.609 88.1444 103.58 88.0022 103.538C87.5328 103.395 87.0777 103.239 86.6225 103.083C85.8829 102.826 85.4846 102.016 85.7407 101.276C85.9967 100.536 86.8074 100.138 87.5471 100.394C87.988 100.551 88.4289 100.693 88.8698 100.835C89.6237 101.077 90.0362 101.873 89.7944 102.627C89.581 103.225 89.0263 103.609 88.4289 103.609ZM128.497 101.077C127.984 101.077 127.501 100.807 127.245 100.337C126.875 99.6404 127.131 98.787 127.814 98.403C128.212 98.1896 128.61 97.962 129.009 97.7202C129.691 97.322 130.559 97.5496 130.957 98.2323C131.355 98.915 131.128 99.7826 130.445 100.181C130.018 100.423 129.592 100.664 129.165 100.906C128.966 101.02 128.724 101.077 128.497 101.077ZM80.4922 100.465C80.293 100.465 80.0797 100.423 79.8806 100.323C79.4396 100.11 79.013 99.9106 78.572 99.6831C77.8751 99.3275 77.5906 98.4741 77.932 97.7771C78.2875 97.0802 79.1409 96.7815 79.8379 97.1371C80.2504 97.3504 80.6771 97.5496 81.0896 97.7487C81.8008 98.09 82.0994 98.9292 81.7581 99.6404C81.5305 100.167 81.0327 100.465 80.4922 100.465ZM117.587 99.8395C117.175 99.8395 116.762 99.6546 116.492 99.3133C116.193 98.9434 115.88 98.5594 115.582 98.1896C115.098 97.578 115.198 96.6819 115.823 96.1983C116.435 95.7147 117.331 95.8143 117.815 96.4401C118.099 96.8099 118.398 97.1655 118.682 97.5211C119.18 98.1327 119.095 99.0288 118.483 99.5266C118.227 99.7258 117.914 99.8395 117.587 99.8395ZM73.0248 96.3548C72.7688 96.3548 72.4986 96.2837 72.271 96.1414C71.8585 95.8854 71.4603 95.6294 71.0478 95.3591C70.3935 94.9324 70.2086 94.0506 70.6353 93.3963C71.062 92.742 71.9439 92.5571 72.5981 92.9838C72.9822 93.2398 73.3804 93.4958 73.7787 93.7376C74.4472 94.1501 74.6463 95.032 74.2196 95.7005C73.9636 96.113 73.4942 96.3548 73.0248 96.3548ZM135.537 96.2694C135.125 96.2694 134.726 96.0987 134.442 95.7574C133.93 95.16 134.015 94.2639 134.613 93.7519C134.968 93.4532 135.31 93.1545 135.651 92.8558C136.234 92.3295 137.13 92.3864 137.656 92.9696C138.183 93.5527 138.126 94.4488 137.543 94.9751C137.173 95.3022 136.803 95.6294 136.433 95.9423C136.191 96.1699 135.864 96.2694 135.537 96.2694ZM112.552 92.9553C112.097 92.9553 111.642 92.7278 111.357 92.3153C111.087 91.917 110.831 91.5046 110.575 91.0921C110.148 90.4236 110.347 89.5559 111.016 89.1292C111.684 88.7025 112.552 88.9017 112.979 89.5702C113.235 89.9684 113.477 90.3524 113.733 90.7365C114.159 91.3908 113.989 92.2726 113.334 92.7135C113.093 92.8842 112.822 92.9553 112.552 92.9553ZM66.0695 91.4192C65.7566 91.4192 65.4437 91.3197 65.1877 91.1205C64.8037 90.8218 64.4338 90.5231 64.064 90.2102C63.4524 89.7124 63.3671 88.8163 63.8649 88.2047C64.3627 87.5931 65.2588 87.5077 65.8704 88.0056C66.226 88.3043 66.5958 88.5887 66.9656 88.8874C67.5772 89.371 67.691 90.2671 67.2074 90.8787C66.9087 91.2343 66.482 91.4192 66.0695 91.4192ZM141.483 90.1675C141.17 90.1675 140.857 90.068 140.601 89.8546C139.989 89.371 139.875 88.4749 140.373 87.8633C140.658 87.5077 140.942 87.1379 141.212 86.7681C141.682 86.1423 142.564 86.0001 143.204 86.4694C143.83 86.9388 143.972 87.8207 143.502 88.4607C143.218 88.859 142.919 89.243 142.606 89.627C142.322 89.9826 141.909 90.1675 141.483 90.1675ZM59.6263 85.8294C59.2707 85.8294 58.9151 85.7014 58.6449 85.4453C58.2893 85.1182 57.9479 84.7768 57.6065 84.4355C57.0518 83.8808 57.0376 82.9847 57.5923 82.43C58.1471 81.8752 59.0431 81.861 59.5978 82.4157C59.925 82.7429 60.2664 83.07 60.6077 83.3829C61.1767 83.9234 61.2051 84.8195 60.6646 85.3884C60.3801 85.6729 59.9961 85.8294 59.6263 85.8294ZM108.271 85.5733C107.744 85.5733 107.247 85.2889 106.991 84.7768C106.777 84.3359 106.564 83.895 106.365 83.454C106.038 82.7429 106.351 81.8895 107.062 81.5623C107.773 81.2352 108.626 81.5481 108.953 82.2593C109.153 82.6717 109.352 83.0985 109.551 83.5109C109.906 84.2221 109.608 85.0755 108.911 85.4169C108.697 85.5307 108.484 85.5733 108.271 85.5733ZM146.034 82.9704C145.821 82.9704 145.607 82.9278 145.408 82.8282C144.697 82.4868 144.413 81.6334 144.754 80.9223C144.953 80.5098 145.138 80.0973 145.323 79.6706C145.636 78.9452 146.475 78.6323 147.2 78.9452C147.926 79.2581 148.239 80.0973 147.926 80.8227C147.727 81.2778 147.528 81.7188 147.3 82.1597C147.058 82.6717 146.56 82.9704 146.034 82.9704ZM53.6951 79.699C53.311 79.699 52.9128 79.5426 52.6283 79.2297C52.3012 78.8741 51.9883 78.5185 51.6754 78.1487C51.1633 77.5513 51.2202 76.6552 51.8176 76.1432C52.415 75.6311 53.311 75.688 53.8231 76.2854C54.136 76.641 54.4347 76.9823 54.7476 77.3379C55.2739 77.9211 55.217 78.8172 54.6338 79.3435C54.3636 79.571 54.0364 79.699 53.6951 79.699ZM105.127 77.6509C104.516 77.6509 103.947 77.2526 103.762 76.6268C103.62 76.1574 103.492 75.688 103.364 75.2044C103.164 74.4506 103.62 73.6683 104.388 73.4691C105.156 73.27 105.924 73.7252 106.123 74.4932C106.237 74.9342 106.365 75.3751 106.493 75.816C106.72 76.5699 106.294 77.3664 105.54 77.5797C105.398 77.6366 105.27 77.6509 105.127 77.6509ZM148.808 74.9199C148.708 74.9199 148.609 74.9057 148.509 74.8915C147.741 74.7208 147.257 73.967 147.414 73.1989C147.513 72.758 147.599 72.317 147.67 71.8619C147.798 71.0938 148.523 70.5675 149.306 70.6956C150.074 70.8236 150.6 71.5632 150.472 72.3313C150.387 72.8149 150.301 73.2985 150.187 73.7821C150.059 74.4648 149.462 74.9199 148.808 74.9199ZM48.2332 73.142C47.8065 73.142 47.394 72.9571 47.1096 72.5873L46.242 71.4494C45.7726 70.8236 45.8864 69.9275 46.5122 69.4581C47.1381 68.9887 48.0341 69.1025 48.5035 69.7283L49.3569 70.852C49.8405 71.4779 49.7267 72.3597 49.1009 72.8433C48.8449 73.0424 48.5319 73.142 48.2332 73.142ZM103.591 69.2732C102.852 69.2732 102.226 68.7043 102.169 67.9504C102.14 67.4526 102.112 66.969 102.098 66.4712C102.083 65.6889 102.695 65.0346 103.477 65.0204C104.26 64.9777 104.914 65.6178 104.928 66.4C104.942 66.8552 104.957 67.3104 104.985 67.7655C105.042 68.5478 104.445 69.2305 103.662 69.2732C103.662 69.2732 103.62 69.2732 103.591 69.2732ZM149.476 66.4427C148.722 66.4427 148.097 65.8596 148.054 65.0915C148.025 64.6363 147.997 64.1954 147.954 63.7403C147.869 62.958 148.438 62.261 149.22 62.1757C150.017 62.1045 150.699 62.6735 150.785 63.4416C150.842 63.9394 150.87 64.4372 150.899 64.9208C150.941 65.7031 150.344 66.3716 149.562 66.4143C149.533 66.4427 149.505 66.4427 149.476 66.4427ZM43.1981 66.2436C42.743 66.2436 42.3021 66.0302 42.0318 65.632L41.2211 64.4514C40.7801 63.7972 40.9508 62.9153 41.6051 62.4744C42.2594 62.0334 43.1412 62.2041 43.5822 62.8584L44.3787 64.0247C44.8196 64.679 44.6631 65.5609 44.0089 66.0018C43.7671 66.1583 43.4826 66.2436 43.1981 66.2436ZM104.217 60.796C104.117 60.796 104.004 60.7818 103.904 60.7675C103.136 60.5969 102.652 59.8288 102.823 59.0749C102.937 58.5913 103.051 58.1077 103.179 57.6241C103.392 56.8703 104.16 56.4151 104.928 56.6285C105.682 56.8419 106.137 57.6241 105.924 58.378C105.81 58.8189 105.696 59.2456 105.597 59.6865C105.454 60.3408 104.871 60.796 104.217 60.796ZM38.5328 59.1034C38.0634 59.1034 37.5941 58.8616 37.3238 58.4349L36.57 57.2259C36.1575 56.5574 36.3708 55.6755 37.0393 55.263C37.7079 54.8506 38.5897 55.0639 39.0022 55.7324L39.7418 56.9414C40.1543 57.6099 39.9552 58.4918 39.2866 58.9043C39.0448 59.0323 38.7888 59.1034 38.5328 59.1034ZM147.855 58.0935C147.257 58.0935 146.717 57.7237 146.504 57.1263C146.361 56.6996 146.205 56.2729 146.034 55.8604C145.735 55.135 146.091 54.3101 146.831 54.0114C147.556 53.7127 148.395 54.0683 148.68 54.8079C148.865 55.263 149.035 55.7324 149.206 56.2018C149.462 56.9414 149.064 57.7522 148.324 58.0082C148.168 58.0651 148.011 58.0935 147.855 58.0935ZM107.261 52.8593C107.019 52.8593 106.777 52.8024 106.564 52.6744C105.881 52.2903 105.639 51.4227 106.023 50.74C106.265 50.299 106.521 49.8723 106.791 49.4598C107.218 48.7913 108.086 48.6064 108.754 49.0189C109.423 49.4456 109.608 50.3133 109.195 50.9818C108.953 51.3658 108.726 51.7498 108.498 52.1339C108.242 52.589 107.759 52.8593 107.261 52.8593ZM34.1377 51.7925C33.6541 51.7925 33.1705 51.5365 32.9003 51.0813L32.1891 49.8439C31.8051 49.1611 32.0327 48.2935 32.7154 47.8953C33.3981 47.497 34.2657 47.7388 34.664 48.4215L35.3752 49.6447C35.7734 50.3275 35.5317 51.1951 34.8632 51.5934C34.6214 51.7214 34.3795 51.7925 34.1377 51.7925ZM143.901 50.5693C143.474 50.5693 143.047 50.3701 142.763 50.0003C142.492 49.6447 142.208 49.2892 141.924 48.9478C141.411 48.3504 141.497 47.4543 142.094 46.9423C142.692 46.4302 143.588 46.5156 144.1 47.113C144.427 47.497 144.74 47.881 145.038 48.2793C145.508 48.9051 145.394 49.8012 144.768 50.2706C144.498 50.4697 144.199 50.5693 143.901 50.5693ZM112.58 46.2311C112.182 46.2311 111.784 46.0604 111.514 45.7475C111.002 45.1501 111.059 44.254 111.642 43.742C112.026 43.4148 112.41 43.0877 112.808 42.789C113.434 42.3054 114.33 42.4334 114.799 43.0593C115.283 43.6851 115.155 44.5812 114.543 45.0505C114.188 45.3208 113.846 45.6053 113.519 45.8897C113.249 46.1173 112.908 46.2311 112.58 46.2311ZM137.656 44.8088C137.4 44.8088 137.13 44.7376 136.903 44.5954C136.533 44.3536 136.149 44.126 135.751 43.9127C135.068 43.5286 134.812 42.6752 135.182 41.9783C135.566 41.2955 136.419 41.0395 137.116 41.4236C137.557 41.6654 137.998 41.9214 138.41 42.1916C139.079 42.6183 139.278 43.486 138.851 44.1545C138.595 44.5812 138.126 44.8088 137.656 44.8088ZM29.9418 44.3536C29.444 44.3536 28.9604 44.0834 28.6902 43.614L28.0074 42.3623C27.6234 41.6796 27.8794 40.8119 28.5621 40.4279C29.2449 40.0439 30.1125 40.2999 30.4965 40.9826L31.1793 42.2201C31.5633 42.9028 31.3073 43.7704 30.6245 44.1545C30.4112 44.2967 30.1694 44.3536 29.9418 44.3536ZM119.948 42.0636C119.337 42.0636 118.782 41.6654 118.597 41.068C118.369 40.3141 118.782 39.5176 119.536 39.29C119.906 39.1762 120.29 39.0767 120.659 38.9771L121.015 38.8918C121.769 38.7211 122.537 39.2047 122.708 39.9728C122.878 40.7408 122.395 41.4947 121.627 41.6654L121.342 41.7365C121.015 41.8218 120.688 41.9072 120.375 42.0067C120.233 42.0494 120.09 42.0636 119.948 42.0636ZM129.791 41.6511C129.706 41.6511 129.606 41.6369 129.506 41.6227C129.066 41.5373 128.639 41.4662 128.198 41.4093C127.416 41.3098 126.875 40.5844 126.975 39.8163C127.074 39.034 127.814 38.4935 128.568 38.5931C129.066 38.6642 129.563 38.7495 130.061 38.8491C130.829 39.0056 131.327 39.7594 131.171 40.5275C131.043 41.1818 130.459 41.6511 129.791 41.6511ZM25.8455 36.872C25.3334 36.872 24.8498 36.6018 24.5938 36.1324L23.911 34.8807C23.5412 34.1838 23.7973 33.3304 24.48 32.9463C25.177 32.5765 26.0303 32.8326 26.4144 33.5153L27.0971 34.767C27.4669 35.4639 27.2109 36.3173 26.5282 36.7014C26.3006 36.8151 26.073 36.872 25.8455 36.872Z" fill="#505050" fill-opacity="0.19"/>
<path d="M21.0379 21.1266C20.6823 21.1266 20.3409 20.9986 20.0707 20.7426L0.456463 2.46534C-0.0840304 1.96752 -0.155149 1.14255 0.300004 0.559384C0.740933 -0.0237802 1.55166 -0.166015 2.1775 0.203796L26.5851 15.1954C26.9975 15.4514 27.2536 15.8923 27.2678 16.3759C27.282 16.8595 27.0402 17.3147 26.642 17.5849L21.8344 20.8706C21.6068 21.0412 21.3224 21.1266 21.0379 21.1266ZM12.8025 10.0749L21.1801 17.8836L23.2283 16.4755L12.8025 10.0749Z" fill="#505050" fill-opacity="0.19"/>
<path d="M11.1525 27.897C11.0103 27.897 10.8681 27.8828 10.7259 27.8401C10.3134 27.7121 9.97198 27.3992 9.81553 27.0009L0.100885 1.95329C-0.155139 1.29901 0.115112 0.545159 0.726723 0.203795C1.33833 -0.13757 2.12063 0.0188919 2.54733 0.573609L18.4634 21.3826C18.7052 21.6955 18.8048 22.0796 18.7337 22.4778C18.6768 22.8619 18.4492 23.2032 18.1363 23.4308L11.9349 27.6694C11.7073 27.8116 11.437 27.897 11.1525 27.897ZM6.37346 10.2172L11.8353 24.2842L15.3201 21.8947L6.37346 10.2172Z" fill="#505050" fill-opacity="0.19"/>
<path d="M17.7096 28.9495C17.6243 28.9495 17.5531 28.9495 17.4678 28.9353C16.8135 28.8215 16.3299 28.281 16.2873 27.6267L15.9317 22.3356C15.8748 21.5533 16.4722 20.8706 17.2544 20.8137C17.8661 20.7568 18.435 21.1408 18.6626 21.6813L19.7436 19.1495C20.0565 18.4241 20.8814 18.097 21.6068 18.3957C22.3322 18.7086 22.6594 19.5335 22.3607 20.2589L19.0181 28.0819C18.7906 28.6224 18.2785 28.9495 17.7096 28.9495Z" fill="#505050" fill-opacity="0.19"/>
<path d="M17.7096 28.9495C17.2402 28.9495 16.7708 28.7077 16.5006 28.281L14.0684 24.3695C13.6559 23.701 13.855 22.8192 14.5235 22.4067C15.192 21.9942 16.0739 22.1933 16.4864 22.8618L18.9186 26.7733C19.3311 27.4418 19.1319 28.3237 18.4634 28.7362C18.2216 28.8784 17.9656 28.9495 17.7096 28.9495Z" fill="#505050" fill-opacity="0.19"/>
</svg>
