<svg width="422" height="224" viewBox="0 0 422 224" fill="none" xmlns="http://www.w3.org/2000/svg">
<g clip-path="url(#clip0_18_382)">
<path d="M267.086 0.00642806C266.789 0.0985456 259.657 12.8043 253.987 22.978C253.185 23.0872 252.517 23.1794 252.517 23.1794L251.426 22.1232L245.338 22.9566L245.974 27.6053L251.861 26.7998C250.789 28.7278 249.826 30.4588 249.05 31.8577C242.585 32.9374 230.116 35.054 228.054 35.6516C225.25 36.4657 221.482 38.7044 221.692 39.6213C221.904 40.5403 226.121 41.77 228.485 42.0485C230.277 42.2606 244.27 40.5553 251.053 39.7005C252.292 41.0095 253.753 42.5498 255.348 44.225L248.382 45.1783L249.018 49.827L255.106 48.9937L255.873 47.6826C255.873 47.6826 257.177 47.5048 258.324 47.3484C266.984 56.4167 277.566 67.3294 278.156 67.1473C279.161 66.8345 281.018 63.7861 281.018 63.7861L275.161 53.7988C276.222 53.5803 276.968 53.2675 276.934 53.0233C276.895 52.747 275.869 52.6548 274.572 52.7941L271.633 47.7833C272.439 47.5777 272.968 47.3227 272.941 47.1149C272.908 46.875 272.132 46.7743 271.08 46.8407L265.275 36.9413L280.085 34.0407L290.606 44.4799L294.115 43.3017L289.056 32.8903L285.397 32.2647C285.397 32.2647 289.155 31.6649 288.938 30.7244C288.722 29.784 285.275 29.769 285.275 29.769L288.104 28.5072L290.882 17.5259L285.661 16.4762L279.075 29.6469L264.18 30.3624L266.898 20.78C268.235 20.5679 269.251 20.1909 269.211 19.906C269.176 19.6553 268.336 19.5568 267.219 19.6425L268.801 14.0661C268.827 14.0619 268.853 14.0597 268.881 14.0554C270.351 13.8541 271.511 13.4449 271.468 13.1407C271.429 12.8643 270.415 12.7722 269.129 12.9072L272.079 2.50646C272.079 2.5086 267.582 -0.147815 267.086 0.00642806Z" fill="#3CB371" fill-opacity="0.24"/>
<path d="M0 175.703L0.523031 177.108C1.19397 176.857 2.84237 176.187 3.50688 175.927L2.96027 174.531C2.30434 174.788 0.664506 175.456 0 175.703Z" fill="#3CB371" fill-opacity="0.24"/>
<path d="M46.1296 147.487C45.0899 148.444 44.0203 149.402 42.9464 150.332L43.9303 151.465C45.0149 150.524 46.0974 149.558 47.1478 148.59L46.1296 147.487Z" fill="#3CB371" fill-opacity="0.24"/>
<path d="M39.6775 153.078C38.5778 153.971 37.4503 154.863 36.3249 155.722L37.2359 156.913C38.3742 156.043 39.5145 155.145 40.6249 154.241L39.6775 153.078Z" fill="#3CB371" fill-opacity="0.24"/>
<path d="M38.9122 158.123C39.8211 159.246 40.8028 160.338 41.8339 161.371L42.8971 160.312C41.9025 159.316 40.955 158.262 40.0804 157.18L38.9122 158.123Z" fill="#3CB371" fill-opacity="0.24"/>
<path d="M52.3395 169.119C53.6235 169.798 54.9568 170.418 56.2987 170.962L56.8624 169.571C55.5656 169.047 54.2794 168.447 53.0405 167.793L52.3395 169.119Z" fill="#3CB371" fill-opacity="0.24"/>
<path d="M45.0707 164.301C46.1918 165.218 47.375 166.09 48.584 166.891L49.4135 165.642C48.2453 164.867 47.1028 164.027 46.0203 163.14L45.0707 164.301Z" fill="#3CB371" fill-opacity="0.24"/>
<path d="M52.2216 141.51C51.242 142.532 50.2345 143.553 49.2206 144.545L50.271 145.614C51.2934 144.61 52.3138 143.577 53.3041 142.544L52.2216 141.51Z" fill="#3CB371" fill-opacity="0.24"/>
<path d="M14.6534 169.31L15.3287 170.649C16.6062 170.004 17.8924 169.331 19.1506 168.646L18.4347 167.328C17.1893 168.005 15.916 168.672 14.6534 169.31Z" fill="#3CB371" fill-opacity="0.24"/>
<path d="M37.6089 153.772C37.1309 153.029 36.6722 152.264 36.2499 151.497C36.0012 151.045 35.759 150.582 35.5275 150.117L34.1835 150.786C34.4236 151.268 34.6765 151.75 34.9337 152.219C35.3732 153.016 35.849 153.813 36.3463 154.584L37.6089 153.772Z" fill="#3CB371" fill-opacity="0.24"/>
<path d="M22.1516 165.231L22.9105 166.525C24.1473 165.801 25.3884 165.049 26.6017 164.289L25.8043 163.018C24.6039 163.77 23.3756 164.516 22.1516 165.231Z" fill="#3CB371" fill-opacity="0.24"/>
<path d="M55.1262 138.38L56.243 139.382C57.2011 138.316 58.155 137.221 59.0789 136.128L57.9321 135.162C57.0189 136.244 56.0736 137.326 55.1262 138.38Z" fill="#3CB371" fill-opacity="0.24"/>
<path d="M29.3862 160.694L30.2222 161.938C31.4097 161.142 32.6015 160.315 33.7676 159.479L32.893 158.26C31.7398 159.087 30.5608 159.905 29.3862 160.694Z" fill="#3CB371" fill-opacity="0.24"/>
<path d="M31.2232 121L32.6744 121.379C33.0302 120.019 33.4589 118.667 33.9477 117.366L32.5436 116.839C32.0356 118.187 31.5898 119.588 31.2232 121Z" fill="#3CB371" fill-opacity="0.24"/>
<path d="M31.1568 142.602C31.5169 144.016 31.952 145.419 32.4515 146.773L33.8598 146.255C33.3775 144.95 32.9574 143.596 32.6101 142.234L31.1568 142.602Z" fill="#3CB371" fill-opacity="0.24"/>
<path d="M116.374 155.377L117.131 156.673C118.625 155.803 119.77 155.139 120.844 154.524L120.098 153.224C119.019 153.839 117.873 154.505 116.374 155.377Z" fill="#3CB371" fill-opacity="0.24"/>
<path d="M6.91299 172.913L7.50248 174.293C8.81863 173.73 10.1434 173.138 11.4445 172.532L10.81 171.172C9.526 171.771 8.21414 172.356 6.91299 172.913Z" fill="#3CB371" fill-opacity="0.24"/>
<path d="M101.468 163.824L102.162 165.152C103.369 164.522 104.613 163.852 105.959 163.108L105.232 161.795C103.894 162.536 102.664 163.2 101.468 163.824Z" fill="#3CB371" fill-opacity="0.24"/>
<path d="M123.855 151.109L124.58 152.422C125.917 151.686 127.152 151.024 128.353 150.4L127.66 149.07C126.449 149.7 125.204 150.366 123.855 151.109Z" fill="#3CB371" fill-opacity="0.24"/>
<path d="M108.958 159.693L109.704 160.994C111.065 160.214 112.407 159.432 113.423 158.839L112.666 157.545C111.652 158.136 110.314 158.916 108.958 159.693Z" fill="#3CB371" fill-opacity="0.24"/>
<path d="M60.425 172.395C61.8269 172.802 63.2588 173.138 64.68 173.391L64.9437 171.915C63.5739 171.671 62.1935 171.347 60.843 170.953L60.425 172.395Z" fill="#3CB371" fill-opacity="0.24"/>
<path d="M139.493 143.761L140.007 145.171C141.368 144.674 142.725 144.226 144.039 143.838L143.615 142.401C142.271 142.795 140.884 143.254 139.493 143.761Z" fill="#3CB371" fill-opacity="0.24"/>
<path d="M131.525 147.14L132.172 148.494C133.495 147.862 134.803 147.27 136.054 146.737L135.465 145.357C134.194 145.899 132.867 146.499 131.525 147.14Z" fill="#3CB371" fill-opacity="0.24"/>
<path d="M147.823 141.319L148.14 142.784C149.533 142.482 150.933 142.238 152.298 142.058L152.101 140.571C150.697 140.758 149.257 141.008 147.823 141.319Z" fill="#3CB371" fill-opacity="0.24"/>
<path d="M69.5416 172.457C69.4002 172.448 69.2608 172.44 69.1194 172.431L69.0186 173.927C69.1644 173.937 69.308 173.946 69.4559 173.954C70.2855 174.002 71.1257 174.025 71.9574 174.025C72.429 174.025 72.9092 174.017 73.3829 174.002L73.3358 172.502C72.0732 172.543 70.7956 172.528 69.5416 172.457Z" fill="#3CB371" fill-opacity="0.24"/>
<path d="M71.3186 113.401L69.8246 113.264C69.7067 114.556 69.4345 115.918 69.0143 117.317L70.4527 117.748C70.9007 116.255 71.1922 114.791 71.3186 113.401Z" fill="#3CB371" fill-opacity="0.24"/>
<path d="M65.5374 124.941L66.8257 125.711C67.6038 124.41 68.2962 123.112 68.8793 121.852L67.5181 121.222C66.9565 122.435 66.2898 123.686 65.5374 124.941Z" fill="#3CB371" fill-opacity="0.24"/>
<path d="M156.74 140.184L156.444 140.194L156.506 141.692L156.793 141.681C158.095 141.636 159.417 141.647 160.727 141.715L160.804 140.218C159.449 140.149 158.082 140.137 156.74 140.184Z" fill="#3CB371" fill-opacity="0.24"/>
<path d="M85.7985 170.413L86.2229 171.851C87.5648 171.454 88.9517 170.996 90.3407 170.486L89.8241 169.079C88.4651 169.578 87.1103 170.028 85.7985 170.413Z" fill="#3CB371" fill-opacity="0.24"/>
<path d="M77.5372 172.17L77.7258 173.659C79.1341 173.481 80.5789 173.235 82.0151 172.926L81.7 171.461C80.3067 171.759 78.9048 171.999 77.5372 172.17Z" fill="#3CB371" fill-opacity="0.24"/>
<path d="M93.7747 167.506L94.3663 168.884C95.6353 168.34 96.96 167.735 98.3019 167.091L97.6503 165.739C96.3298 166.377 95.0244 166.971 93.7747 167.506Z" fill="#3CB371" fill-opacity="0.24"/>
<path d="M355.652 188.366L356.923 189.162C357.693 187.937 358.43 186.68 359.116 185.422L357.8 184.704C357.127 185.934 356.405 187.166 355.652 188.366Z" fill="#3CB371" fill-opacity="0.24"/>
<path d="M333.241 31.1186C331.846 30.7737 330.429 30.4502 329.029 30.1567L328.72 31.6242C330.103 31.9134 331.503 32.2326 332.879 32.5732L333.241 31.1186Z" fill="#3CB371" fill-opacity="0.24"/>
<path d="M360.874 152.47C361.491 153.669 362.004 154.965 362.4 156.319L363.841 155.899C363.418 154.453 362.87 153.069 362.209 151.784L360.874 152.47Z" fill="#3CB371" fill-opacity="0.24"/>
<path d="M355.691 146.118C356.12 146.454 356.538 146.814 356.932 147.193C357.532 147.765 358.098 148.378 358.617 149.014L359.781 148.067C359.223 147.382 358.613 146.722 357.967 146.107C357.536 145.696 357.082 145.304 356.617 144.937L355.691 146.118Z" fill="#3CB371" fill-opacity="0.24"/>
<path d="M348.27 142.684C349.64 142.984 350.956 143.421 352.182 143.984L352.808 142.622C351.483 142.013 350.064 141.542 348.589 141.221L348.27 142.684Z" fill="#3CB371" fill-opacity="0.24"/>
<path d="M332.124 145.068C333.346 144.428 334.637 143.881 335.959 143.446L335.49 142.022C334.088 142.482 332.723 143.061 331.426 143.74L332.124 145.068Z" fill="#3CB371" fill-opacity="0.24"/>
<path d="M349.663 36.4421C348.33 35.9044 346.973 35.386 345.631 34.8976L345.119 36.3072C346.446 36.7892 347.788 37.3033 349.104 37.8346L349.663 36.4421Z" fill="#3CB371" fill-opacity="0.24"/>
<path d="M419.314 117.51L420.793 117.255C420.551 115.848 420.268 114.419 419.953 113.009L418.489 113.337C418.798 114.725 419.074 116.128 419.314 117.51Z" fill="#3CB371" fill-opacity="0.24"/>
<path d="M418.903 108.814C418.523 107.437 418.103 106.044 417.655 104.673L416.229 105.138C416.671 106.488 417.085 107.857 417.458 109.213L418.903 108.814Z" fill="#3CB371" fill-opacity="0.24"/>
<path d="M420.324 125.95L421.82 125.85C421.723 124.423 421.588 122.973 421.417 121.54L419.927 121.717C420.096 123.127 420.229 124.549 420.324 125.95Z" fill="#3CB371" fill-opacity="0.24"/>
<path d="M365.204 43.9508C363.956 43.2439 362.681 42.5476 361.414 41.8814L360.715 43.2096C361.967 43.8673 363.228 44.5549 364.462 45.2554L365.204 43.9508Z" fill="#3CB371" fill-opacity="0.24"/>
<path d="M412.789 92.6532C412.163 91.3635 411.501 90.0696 410.817 88.8056L409.497 89.519C410.17 90.7637 410.823 92.0383 411.439 93.3087L412.789 92.6532Z" fill="#3CB371" fill-opacity="0.24"/>
<path d="M364.938 164.603C364.94 164.419 364.942 164.235 364.942 164.053C364.942 162.744 364.865 161.454 364.715 160.218L363.225 160.4C363.369 161.576 363.442 162.806 363.442 164.053C363.442 164.229 363.44 164.404 363.438 164.58L364.938 164.603Z" fill="#3CB371" fill-opacity="0.24"/>
<path d="M323.167 153.479L321.865 152.731C321.137 153.997 320.511 155.347 320.007 156.739L321.417 157.249C321.893 155.938 322.481 154.67 323.167 153.479Z" fill="#3CB371" fill-opacity="0.24"/>
<path d="M43.2336 103.585L42.2605 102.445C41.1758 103.371 40.1276 104.416 39.1437 105.552L40.2777 106.533C41.2122 105.453 42.2069 104.461 43.2336 103.585Z" fill="#3CB371" fill-opacity="0.24"/>
<path d="M50.3739 99.4656L49.9001 98.0431C48.5218 98.4994 47.1628 99.1164 45.8574 99.8769L46.614 101.173C47.8294 100.464 49.0942 99.8897 50.3739 99.4656Z" fill="#3CB371" fill-opacity="0.24"/>
<path d="M58.4873 98.87L58.7423 97.3919C57.2804 97.1391 55.7649 97.0662 54.2837 97.1712L54.3909 98.6665C55.7521 98.5701 57.1454 98.6387 58.4873 98.87Z" fill="#3CB371" fill-opacity="0.24"/>
<path d="M36.3506 112.176C36.7901 111.389 37.2595 110.616 37.7482 109.877L36.4964 109.05C35.9862 109.821 35.4975 110.627 35.0409 111.447C34.7858 111.904 34.5393 112.371 34.3035 112.838L35.6433 113.515C35.8662 113.063 36.1063 112.613 36.3506 112.176Z" fill="#3CB371" fill-opacity="0.24"/>
<path d="M31.8213 125.503L30.3379 125.274C30.1171 126.702 29.9671 128.163 29.8899 129.614L31.3883 129.693C31.4633 128.294 31.6091 126.882 31.8213 125.503Z" fill="#3CB371" fill-opacity="0.24"/>
<path d="M63.5632 130.52C63.8591 130.13 64.1484 129.736 64.4292 129.346L63.2096 128.472C62.9373 128.851 62.6522 129.237 62.365 129.616C61.7948 130.37 61.2096 131.124 60.6287 131.859L61.8055 132.789C62.395 132.045 62.9866 131.283 63.5632 130.52Z" fill="#3CB371" fill-opacity="0.24"/>
<path d="M325.584 150.13C326.487 149.115 327.509 148.164 328.62 147.309L327.704 146.122C326.519 147.035 325.428 148.05 324.463 149.136L325.584 150.13Z" fill="#3CB371" fill-opacity="0.24"/>
<path d="M320.339 161.266L318.862 160.998C318.603 162.42 318.453 163.894 318.414 165.377L319.915 165.415C319.951 164.01 320.095 162.613 320.339 161.266Z" fill="#3CB371" fill-opacity="0.24"/>
<path d="M66.8022 101.141C65.7046 100.164 64.4335 99.3435 63.023 98.7008L62.3993 100.065C63.6725 100.646 64.8193 101.385 65.8054 102.261L66.8022 101.141Z" fill="#3CB371" fill-opacity="0.24"/>
<path d="M324.785 29.3491C323.37 29.107 321.932 28.8885 320.515 28.6978L320.316 30.1846C321.715 30.371 323.134 30.5873 324.532 30.8273L324.785 29.3491Z" fill="#3CB371" fill-opacity="0.24"/>
<path d="M31.7827 138.104C31.579 136.722 31.4418 135.31 31.3754 133.909L29.877 133.98C29.9456 135.43 30.0871 136.893 30.2993 138.324L31.7827 138.104Z" fill="#3CB371" fill-opacity="0.24"/>
<path d="M71.1408 108.924C70.8642 107.424 70.3541 105.995 69.6274 104.673L68.3134 105.398C68.9629 106.578 69.4195 107.855 69.666 109.196L71.1408 108.924Z" fill="#3CB371" fill-opacity="0.24"/>
<path d="M318.616 169.766C318.785 171.204 319.053 172.654 319.42 174.081L320.873 173.71C320.526 172.35 320.266 170.966 320.105 169.595L318.616 169.766Z" fill="#3CB371" fill-opacity="0.24"/>
<path d="M357.56 39.9383C356.268 39.3128 354.949 38.7022 353.642 38.1238L353.033 39.4949C354.325 40.0669 355.629 40.671 356.906 41.288L357.56 39.9383Z" fill="#3CB371" fill-opacity="0.24"/>
<path d="M359.663 180.91L361.037 181.512C361.62 180.182 362.147 178.815 362.608 177.451L361.187 176.973C360.739 178.295 360.227 179.619 359.663 180.91Z" fill="#3CB371" fill-opacity="0.24"/>
<path d="M368.923 46.1423L368.141 47.4213C369.35 48.1604 370.563 48.9294 371.746 49.7071L372.569 48.4539C371.373 47.6676 370.145 46.89 368.923 46.1423Z" fill="#3CB371" fill-opacity="0.24"/>
<path d="M363.12 168.77C362.94 170.128 362.681 171.523 362.351 172.913L363.811 173.26C364.152 171.821 364.422 170.377 364.608 168.967L363.12 168.77Z" fill="#3CB371" fill-opacity="0.24"/>
<path d="M367.594 198.766C366.398 198.976 365.176 199.143 363.967 199.267L364.119 200.759C365.365 200.63 366.621 200.456 367.851 200.242C368.044 200.208 368.237 200.174 368.43 200.137L368.158 198.663C367.969 198.7 367.783 198.732 367.594 198.766Z" fill="#3CB371" fill-opacity="0.24"/>
<path d="M164.928 142.127C166.302 142.324 167.7 142.585 169.083 142.904L169.421 141.443C167.998 141.113 166.56 140.844 165.14 140.642L164.928 142.127Z" fill="#3CB371" fill-opacity="0.24"/>
<path d="M375.277 52.1086C376.438 52.9248 377.598 53.771 378.728 54.6215L379.63 53.4239C378.488 52.5627 377.315 51.708 376.14 50.881L375.277 52.1086Z" fill="#3CB371" fill-opacity="0.24"/>
<path d="M372.288 197.729L372.676 199.178C374.065 198.807 375.463 198.376 376.833 197.896L376.338 196.48C375.002 196.95 373.641 197.369 372.288 197.729Z" fill="#3CB371" fill-opacity="0.24"/>
<path d="M382.093 57.2457C383.201 58.1391 384.303 59.0581 385.371 59.9793L386.35 58.8439C385.27 57.912 384.155 56.9822 383.034 56.0782L382.093 57.2457Z" fill="#3CB371" fill-opacity="0.24"/>
<path d="M338.581 196.752C339.88 197.363 341.241 197.92 342.626 198.404L343.121 196.988C341.785 196.521 340.471 195.986 339.22 195.396L338.581 196.752Z" fill="#3CB371" fill-opacity="0.24"/>
<path d="M339.781 140.993L340.009 142.476C341.393 142.264 342.789 142.172 344.156 142.202L344.191 140.702C342.737 140.668 341.252 140.766 339.781 140.993Z" fill="#3CB371" fill-opacity="0.24"/>
<path d="M338.617 207.155L339.539 208.338C340.673 207.453 341.798 206.526 342.881 205.576L341.893 204.448C340.832 205.377 339.73 206.288 338.617 207.155Z" fill="#3CB371" fill-opacity="0.24"/>
<path d="M355.515 199.441L355.421 200.938C356.497 201.005 357.592 201.039 358.677 201.039C359.043 201.039 359.408 201.035 359.774 201.028L359.742 199.529C358.334 199.557 356.911 199.529 355.515 199.441Z" fill="#3CB371" fill-opacity="0.24"/>
<path d="M346.81 199.64C346.834 199.647 346.855 199.651 346.879 199.657C346.266 200.302 345.642 200.941 345.007 201.56L346.058 202.629C346.915 201.787 347.76 200.917 348.576 200.034C349.406 200.204 350.244 200.351 351.084 200.478L351.307 198.995C349.905 198.785 348.512 198.511 347.164 198.181L346.81 199.64Z" fill="#3CB371" fill-opacity="0.24"/>
<path d="M350.718 195.272L351.886 196.213C352.793 195.09 353.676 193.929 354.51 192.761L353.288 191.89C352.471 193.036 351.605 194.173 350.718 195.272Z" fill="#3CB371" fill-opacity="0.24"/>
<path d="M411.053 166.746L412.352 167.495C413.07 166.251 413.762 164.965 414.407 163.678L413.066 163.005C412.433 164.269 411.756 165.527 411.053 166.746Z" fill="#3CB371" fill-opacity="0.24"/>
<path d="M414.592 96.5842L413.214 97.1776C413.775 98.478 414.313 99.8041 414.813 101.124L416.214 100.592C415.706 99.2535 415.16 97.906 414.592 96.5842Z" fill="#3CB371" fill-opacity="0.24"/>
<path d="M414.855 159.156L416.234 159.747C416.804 158.421 417.338 157.063 417.822 155.713L416.41 155.205C415.936 156.527 415.413 157.857 414.855 159.156Z" fill="#3CB371" fill-opacity="0.24"/>
<path d="M341.545 33.4922C340.178 33.0488 338.789 32.6246 337.415 32.2326L337.003 33.6743C338.36 34.0621 339.734 34.482 341.085 34.919L341.545 33.4922Z" fill="#3CB371" fill-opacity="0.24"/>
<path d="M406.384 173.839L407.587 174.736C408.446 173.586 409.284 172.391 410.075 171.187L408.821 170.362C408.045 171.54 407.227 172.71 406.384 173.839Z" fill="#3CB371" fill-opacity="0.24"/>
<path d="M421.994 130.177L420.493 130.196C420.497 130.526 420.499 130.856 420.499 131.186C420.499 132.268 420.476 133.365 420.431 134.445L421.929 134.509C421.976 133.408 422 132.289 422 131.186C422 130.85 421.998 130.513 421.994 130.177Z" fill="#3CB371" fill-opacity="0.24"/>
<path d="M417.726 151.169L419.166 151.589C419.571 150.203 419.936 148.789 420.251 147.39L418.787 147.06C418.478 148.429 418.122 149.813 417.726 151.169Z" fill="#3CB371" fill-opacity="0.24"/>
<path d="M419.64 142.555L419.586 142.894L421.068 143.129L421.121 142.782C421.32 141.478 421.49 140.149 421.621 138.832L420.129 138.684C420 139.974 419.837 141.276 419.64 142.555Z" fill="#3CB371" fill-opacity="0.24"/>
<path d="M388.556 62.8199C389.604 63.7882 390.642 64.7801 391.638 65.7698L392.695 64.7051C391.686 63.7047 390.635 62.7 389.574 61.7188L388.556 62.8199Z" fill="#3CB371" fill-opacity="0.24"/>
<path d="M398.592 71.0248C397.655 69.9323 396.687 68.8483 395.709 67.8028L394.612 68.8268C395.574 69.8573 396.53 70.9263 397.452 72.0017L398.592 71.0248Z" fill="#3CB371" fill-opacity="0.24"/>
<path d="M387.784 191.007L388.571 192.284C389.793 191.532 391.01 190.724 392.189 189.884L391.319 188.663C390.166 189.484 388.976 190.272 387.784 191.007Z" fill="#3CB371" fill-opacity="0.24"/>
<path d="M408.68 85.0481C407.947 83.8184 407.173 82.5866 406.384 81.3848L405.13 82.2075C405.908 83.3921 406.669 84.6047 407.392 85.8172L408.68 85.0481Z" fill="#3CB371" fill-opacity="0.24"/>
<path d="M394.689 186.09L395.638 187.252C396.749 186.345 397.851 185.388 398.909 184.404L397.889 183.305C396.852 184.267 395.776 185.206 394.689 186.09Z" fill="#3CB371" fill-opacity="0.24"/>
<path d="M400.909 180.323L401.996 181.358C402.984 180.321 403.96 179.233 404.89 178.13L403.743 177.164C402.832 178.245 401.878 179.308 400.909 180.323Z" fill="#3CB371" fill-opacity="0.24"/>
<path d="M403.934 77.8222C403.096 76.6568 402.221 75.4936 401.336 74.3668L400.155 75.2922C401.027 76.404 401.889 77.548 402.716 78.6963L403.934 77.8222Z" fill="#3CB371" fill-opacity="0.24"/>
<path d="M380.278 194.936L380.878 196.311C382.194 195.737 383.512 195.105 384.796 194.435L384.1 193.106C382.848 193.76 381.564 194.377 380.278 194.936Z" fill="#3CB371" fill-opacity="0.24"/>
<path d="M225.523 186.474C226.571 187.644 227.514 188.687 228.406 189.664L229.514 188.653C228.624 187.68 227.686 186.639 226.639 185.473L225.523 186.474Z" fill="#3CB371" fill-opacity="0.24"/>
<path d="M220.928 179.057L219.805 180.052L222.653 183.263L223.776 182.268L220.928 179.057Z" fill="#3CB371" fill-opacity="0.24"/>
<path d="M231.332 192.821C232.354 193.908 233.357 194.953 234.313 195.93L235.385 194.88C234.436 193.912 233.439 192.873 232.423 191.793L231.332 192.821Z" fill="#3CB371" fill-opacity="0.24"/>
<path d="M250.575 210.097C251.766 210.939 252.977 211.748 254.171 212.505L254.973 211.236C253.798 210.495 252.611 209.698 251.441 208.871L250.575 210.097Z" fill="#3CB371" fill-opacity="0.24"/>
<path d="M331.629 211.986L332.412 213.265C333.64 212.517 334.862 211.721 336.047 210.902L335.194 209.668C334.03 210.472 332.832 211.251 331.629 211.986Z" fill="#3CB371" fill-opacity="0.24"/>
<path d="M214.087 173.678C214.983 174.657 215.924 175.696 216.961 176.855L218.078 175.855C217.036 174.694 216.093 173.65 215.193 172.667L214.087 173.678Z" fill="#3CB371" fill-opacity="0.24"/>
<path d="M243.749 204.786C244.866 205.733 245.994 206.652 247.102 207.515L248.026 206.333C246.935 205.482 245.822 204.576 244.723 203.642L243.749 204.786Z" fill="#3CB371" fill-opacity="0.24"/>
<path d="M188.456 151.281C189.629 152.018 190.823 152.81 192.002 153.633L192.861 152.403C191.663 151.566 190.45 150.76 189.256 150.01L188.456 151.281Z" fill="#3CB371" fill-opacity="0.24"/>
<path d="M209.268 166.416L208.203 167.472C209.137 168.412 210.089 169.394 211.032 170.392L211.176 170.544L212.265 169.511L212.123 169.361C211.169 168.355 210.209 167.363 209.268 166.416Z" fill="#3CB371" fill-opacity="0.24"/>
<path d="M173.16 144.025C174.48 144.445 175.82 144.925 177.147 145.456L177.704 144.063C176.345 143.519 174.969 143.026 173.614 142.596L173.16 144.025Z" fill="#3CB371" fill-opacity="0.24"/>
<path d="M257.899 214.715C259.153 215.412 260.45 216.08 261.753 216.703L262.401 215.352C261.125 214.741 259.854 214.086 258.626 213.404L257.899 214.715Z" fill="#3CB371" fill-opacity="0.24"/>
<path d="M181.029 147.163C182.278 147.763 183.545 148.419 184.799 149.115L185.528 147.804C184.248 147.093 182.954 146.422 181.678 145.809L181.029 147.163Z" fill="#3CB371" fill-opacity="0.24"/>
<path d="M195.438 156.15C196.542 156.996 197.665 157.89 198.771 158.809L199.729 157.654C198.608 156.724 197.47 155.816 196.351 154.959L195.438 156.15Z" fill="#3CB371" fill-opacity="0.24"/>
<path d="M202.006 161.591C203.043 162.517 204.1 163.489 205.148 164.483L206.181 163.397C205.122 162.393 204.055 161.409 203.004 160.473L202.006 161.591Z" fill="#3CB371" fill-opacity="0.24"/>
<path d="M237.368 198.972C238.425 199.998 239.482 200.992 240.508 201.93L241.52 200.823C240.504 199.895 239.458 198.91 238.412 197.894L237.368 198.972Z" fill="#3CB371" fill-opacity="0.24"/>
<path d="M320.779 178.248C321.319 179.604 321.951 180.936 322.658 182.209L323.97 181.48C323.295 180.263 322.691 178.989 322.174 177.693L320.779 178.248Z" fill="#3CB371" fill-opacity="0.24"/>
<path d="M316.226 219.071L316.686 220.497C318.052 220.056 319.426 219.566 320.772 219.041L320.225 217.644C318.907 218.16 317.561 218.64 316.226 219.071Z" fill="#3CB371" fill-opacity="0.24"/>
<path d="M265.721 218.458C267.052 219 268.418 219.51 269.783 219.975L270.268 218.554C268.93 218.1 267.59 217.599 266.287 217.07L265.721 218.458Z" fill="#3CB371" fill-opacity="0.24"/>
<path d="M311.827 29.3748C313.237 29.4562 314.667 29.5655 316.078 29.7004L316.221 28.2073C314.792 28.0702 313.343 27.9588 311.913 27.8774L311.827 29.3748Z" fill="#3CB371" fill-opacity="0.24"/>
<path d="M325.029 185.898C325.906 187.082 326.862 188.207 327.872 189.244L328.946 188.196C327.983 187.209 327.07 186.135 326.234 185.006L325.029 185.898Z" fill="#3CB371" fill-opacity="0.24"/>
<path d="M335.518 193.398C334.317 192.661 333.158 191.853 332.071 190.994L331.141 192.17C332.272 193.063 333.481 193.905 334.731 194.674L335.518 193.398Z" fill="#3CB371" fill-opacity="0.24"/>
<path d="M324.135 215.981L324.763 217.344C326.069 216.742 327.374 216.095 328.648 215.416L327.94 214.092C326.693 214.758 325.413 215.395 324.135 215.981Z" fill="#3CB371" fill-opacity="0.24"/>
<path d="M282.4 223.081C283.821 223.304 285.268 223.488 286.7 223.632L286.848 222.138C285.442 221.999 284.025 221.817 282.632 221.601L282.4 223.081Z" fill="#3CB371" fill-opacity="0.24"/>
<path d="M273.927 221.251C275.313 221.635 276.73 221.984 278.137 222.288L278.454 220.823C277.073 220.525 275.686 220.182 274.327 219.808L273.927 221.251Z" fill="#3CB371" fill-opacity="0.24"/>
<path d="M291.088 222.436L291.026 223.934C292.074 223.976 293.135 224 294.181 224C294.576 224 294.968 223.998 295.362 223.991L295.339 222.492C293.926 222.513 292.501 222.494 291.088 222.436Z" fill="#3CB371" fill-opacity="0.24"/>
<path d="M308.003 221.185L308.288 222.657C309.705 222.383 311.128 222.063 312.519 221.706L312.146 220.253C310.783 220.602 309.39 220.917 308.003 221.185Z" fill="#3CB371" fill-opacity="0.24"/>
<path d="M299.583 222.301L299.692 223.796C301.131 223.692 302.582 223.542 304.005 223.353L303.808 221.866C302.412 222.053 300.991 222.198 299.583 222.301Z" fill="#3CB371" fill-opacity="0.24"/>
<path d="M303.238 27.6867V29.1863H305.328C306.035 29.1863 306.751 29.1927 307.458 29.2056L307.486 27.706C306.77 27.6931 306.044 27.6845 305.328 27.6845H303.238V27.6867Z" fill="#3CB371" fill-opacity="0.24"/>
</g>
<defs>
<clipPath id="clip0_18_382">
<rect width="422" height="224" fill="white"/>
</clipPath>
</defs>
</svg>
